# xmcd CD database file
#
# Track frame offsets:
#	151
#	10225
#	33272
#	54898
#	75710
#	86675
#	98886
#	110798
#	123524
#	136825
#	149644
#	171221
#	184256
#	196660
#	216770
#	231516
#
# Disc length: 3254 seconds
#
# Revision: 0
# Processed by: cddbd v1.5.1PL2 Copyright (c) Steve Scherf et al.
# Submitted via: CDex 1.51
#
DISCID=df0cb410
DTITLE=Salsa  - Baila Salsa
DYEAR=1900
DGENRE=Salsa
TTITLE0=Maria Cristina
TTITLE1=Ven devorame otra vez
TTITLE2=Acuyuye
TTITLE3=Si no la tengo
TTITLE4=Cachito
TTITLE5=Juancito Trucupey
TTITLE6=La guagua
TTITLE7=Burundanga
TTITLE8=La Mucura
TTITLE9=Cañonazo
TTITLE10=Me estoy muriendo por dentro
TTITLE11=A romper el coco
TTITLE12=Melao de caña
TTITLE13=Me estoy enamorando
TTITLE14=Bueno mama
TTITLE15=La bola
EXTD=
EXTT0=
EXTT1=
EXTT2=
EXTT3=
EXTT4=
EXTT5=
EXTT6=
EXTT7=
EXTT8=
EXTT9=
EXTT10=
EXTT11=
EXTT12=
EXTT13=
EXTT14=
EXTT15=
PLAYORDER=
